<?xml version="1.0" encoding="UTF-8"?>
<svg id="Camada_1" data-name="Camada 1" xmlns="http://www.w3.org/2000/svg" viewBox="0 0 319.59 305.01">
  <defs>
    <style>
      .cls-1 {
        fill: #fff;
      }

      .cls-2 {
        fill: #d80707;
        stroke: #1c2d6b;
        stroke-miterlimit: 10;
        stroke-width: 3px;
      }

      .cls-3 {
        fill: #1c2d6b;
      }
    </style>
  </defs>
  <polygon class="cls-2" points="1.5 211.89 1.5 29.11 159.79 62 318.09 29.11 318.09 211.89 159.79 303.28 1.5 211.89"/>
  <g>
    <path class="cls-1" d="M73.82,148.56l33.97,76.44h13.76l-44.4-88.29c-3.61,2.51-5.32,7.37-3.33,11.85Z"/>
    <path class="cls-1" d="M147.79,225l-57.14-85.71c-1.79-2.68-4.8-4.3-8.02-4.3-1.17,0-2.26,.22-3.27,.58l51.56,89.42h16.88Z"/>
    <path class="cls-1" d="M79.36,135.58c-.79,.28-1.53,.67-2.2,1.13l44.4,88.29h9.37l-51.56-89.42Z"/>
    <path class="cls-1" d="M244.98,148.56l-33.97,76.44h-13.76l44.39-88.29c3.61,2.51,5.32,7.37,3.34,11.85Z"/>
    <path class="cls-1" d="M171.01,225l57.14-85.71c1.79-2.68,4.8-4.3,8.02-4.3,1.17,0,2.26,.22,3.27,.58l-51.56,89.42h-16.88Z"/>
    <path class="cls-1" d="M239.44,135.58c.79,.28,1.53,.67,2.2,1.13l-44.4,88.29h-9.37l51.56-89.42Z"/>
    <path class="cls-1" d="M259.54,225h-72.28c5.82,0,10.54,4.72,10.54,10.54v28.92c0,5.82-4.72,10.54-10.54,10.54h72.28c10.08,0,18.26-8.17,18.26-18.26v-13.49c0-10.08-8.17-18.26-18.26-18.26Z"/>
    <path class="cls-1" d="M117.79,264.46v-28.92c0-5.82,4.72-10.54,10.54-10.54H56.05c-10.08,0-18.26,8.17-18.26,18.26v13.49c0,10.08,8.17,18.26,18.26,18.26h72.28c-5.82,0-10.54-4.72-10.54-10.54h0Z"/>
    <path class="cls-1" d="M197.79,264.46v-28.92c0-5.82-4.72-10.54-10.54-10.54h-58.92c-5.82,0-10.54,4.72-10.54,10.54v28.92c0,5.82,4.72,10.54,10.54,10.54h58.92c5.82,0,10.54-4.72,10.54-10.54Z"/>
    <path class="cls-3" d="M259.54,280H56.05c-12.82,0-23.26-10.43-23.26-23.26v-13.49c0-12.82,10.43-23.26,23.26-23.26h203.49c12.82,0,23.26,10.43,23.26,23.26v13.49c0,12.82-10.43,23.26-23.26,23.26ZM56.05,230c-7.31,0-13.26,5.95-13.26,13.26v13.49c0,7.31,5.95,13.26,13.26,13.26h203.49c7.31,0,13.26-5.95,13.26-13.26v-13.49c0-7.31-5.95-13.26-13.26-13.26H56.05Z"/>
    <path class="cls-3" d="M147.79,230h-40c-1.98,0-3.77-1.16-4.57-2.97l-33.97-76.44c-2.02-4.55-1.61-9.75,1.1-13.93,2.71-4.17,7.3-6.66,12.28-6.66s9.46,2.44,12.18,6.52l57.14,85.7c1.02,1.53,1.12,3.51,.25,5.13s-2.57,2.64-4.41,2.64Zm-36.75-10h27.41l-51.95-77.93c-.86-1.29-2.31-2.07-3.86-2.07s-3.02,.77-3.89,2.11c-.87,1.34-1,2.95-.35,4.42l32.65,73.47Z"/>
    <path class="cls-3" d="M211.13,230h-40c-1.84,0-3.54-1.01-4.41-2.64-.87-1.63-.77-3.6,.25-5.13l57.14-85.71c2.72-4.08,7.28-6.52,12.19-6.52s9.57,2.49,12.28,6.66c2.71,4.17,3.12,9.38,1.1,13.93l-33.97,76.44c-.8,1.81-2.59,2.97-4.57,2.97h0Zm-30.66-10h27.41l32.66-73.47c.65-1.46,.52-3.07-.35-4.42-.87-1.34-2.29-2.11-3.9-2.11s-3,.77-3.86,2.07l-51.95,77.93Z"/>
    <path class="cls-1" d="M157.79,5c-38.67,0-73.67,15.67-99,41l21.22,21.22c8.22-8.21,17.73-15.1,28.2-20.39l-.42-.82c12.8-25.33,30.47-41,50-41Z"/>
    <path class="cls-1" d="M256.79,46C231.46,20.67,196.46,5,157.79,5c19.53,0,37.21,15.67,50,41l-.41,.82c10.46,5.3,19.98,12.19,28.2,20.39l21.22-21.22Z"/>
    <path class="cls-1" d="M157.79,5c-19.53,0-37.2,15.67-50,41l.42,.82c14.91-7.55,31.74-11.82,49.58-11.82s34.68,4.28,49.59,11.82l.41-.82c-12.8-25.33-30.47-41-50-41Z"/>
    <path class="cls-1" d="M157.79,65c-22.1,0-42.1,8.95-56.57,23.43l21.22,21.22c5.35-5.35,11.91-9.48,19.23-11.97l-3.15-9.24c4.93-14.48,11.74-23.43,19.27-23.43Z"/>
    <path class="cls-1" d="M214.36,88.43c-14.47-14.48-34.47-23.43-56.57-23.43,7.53,0,14.34,8.95,19.27,23.43l-3.15,9.24c7.32,2.5,13.88,6.62,19.23,11.97l21.22-21.22Z"/>
    <path class="cls-1" d="M157.79,65c-7.53,0-14.34,8.95-19.27,23.43l3.15,9.24c5.06-1.73,10.48-2.68,16.12-2.68s11.06,.95,16.12,2.68l3.15-9.24c-4.93-14.48-11.74-23.43-19.27-23.43h0Z"/>
    <path class="cls-1" d="M151.59,145c0-11.04,2.78-20,6.2-20-11.04,0-20,8.96-20,20s8.96,20,20,20c-3.43,0-6.2-8.96-6.2-20Z"/>
    <path class="cls-1" d="M157.79,125c3.42,0,6.2,8.96,6.2,20s-2.78,20-6.2,20c11.04,0,20-8.96,20-20s-8.96-20-20-20Z"/>
    <ellipse class="cls-1" cx="157.79" cy="145" rx="6.2" ry="20"/>
    <g>
      <path class="cls-3" d="M235.58,72.22c-1.28,0-2.56-.49-3.53-1.46-19.85-19.83-46.22-30.75-74.25-30.75s-54.4,10.92-74.25,30.75c-1.95,1.95-5.12,1.95-7.07,0l-21.22-21.22c-1.95-1.95-1.95-5.12,0-7.07C82.64,15.08,119.06,0,157.79,0s75.15,15.08,102.53,42.47c.94,.94,1.46,2.21,1.46,3.54s-.53,2.6-1.46,3.54l-21.22,21.22c-.98,.97-2.25,1.46-3.54,1.46h0ZM157.79,30c29.03,0,56.43,10.69,77.71,30.22l14.16-14.16c-25.04-23.29-57.47-36.06-91.87-36.06s-66.82,12.77-91.87,36.06l14.16,14.16c21.27-19.53,48.68-30.22,77.71-30.22h0Z"/>
      <path class="cls-3" d="M122.44,114.65c-1.28,0-2.56-.49-3.54-1.46l-21.22-21.22c-1.95-1.95-1.95-5.12,0-7.07,16.04-16.06,37.38-24.9,60.1-24.9s44.06,8.84,60.1,24.9c1.95,1.95,1.95,5.12,0,7.07l-21.22,21.22c-.94,.94-2.21,1.46-3.54,1.46s-2.6-.53-3.54-1.46c-8.5-8.5-19.8-13.19-31.82-13.19s-23.31,4.68-31.82,13.19c-.97,.98-2.25,1.46-3.54,1.46h0Zm-14.03-26.1l14.19,14.19c9.87-8.25,22.18-12.74,35.19-12.74s25.33,4.49,35.19,12.74l14.19-14.19c-13.66-12-31.01-18.55-49.38-18.55s-35.72,6.55-49.38,18.55Z"/>
      <path class="cls-3" d="M157.79,170c-13.78,0-25-11.22-25-25s11.22-25,25-25,25,11.22,25,25-11.22,25-25,25Zm0-40c-8.27,0-15,6.73-15,15s6.73,15,15,15,15-6.73,15-15-6.73-15-15-15Z"/>
      <circle class="cls-3" cx="64.54" cy="250" r="6.74"/>
      <circle class="cls-3" cx="84.54" cy="250" r="6.74"/>
      <circle class="cls-3" cx="104.54" cy="250" r="6.74"/>
      <path class="cls-3" d="M247.79,255h-20c-2.76,0-5-2.24-5-5s2.24-5,5-5h20c2.76,0,5,2.24,5,5s-2.24,5-5,5Z"/>
    </g>
  </g>
</svg>