<?xml version="1.0" encoding="utf-8"?>
<!-- Generator: Adobe Illustrator 26.4.1, SVG Export Plug-In . SVG Version: 6.00 Build 0)  -->
<svg version="1.1" id="Layer_1" xmlns="http://www.w3.org/2000/svg" xmlns:xlink="http://www.w3.org/1999/xlink" x="0px" y="0px"
	 viewBox="0 0 512 512" style="enable-background:new 0 0 512 512;" xml:space="preserve">
<style type="text/css">
	.st0{fill:#89AADB;}
	.st1{fill:#4B67B0;}
	.st2{fill:#FF1200;}
	.st3{fill:#FC1200;}
	.st4{fill:#1C2D6B;}
	.st5{fill:#FFFFFF;}
</style>
<path class="st0" d="M155.2,266.3L196,358h16.5l-53.3-105.9C154.9,255.1,152.8,260.9,155.2,266.3z"/>
<path class="st1" d="M244,358l-68.6-102.8c-2.1-3.2-5.8-5.2-9.6-5.2c-1.4,0-2.7,0.3-3.9,0.7L223.7,358H244z"/>
<path class="st2" d="M161.9,250.7c-1,0.3-1.8,0.8-2.6,1.4L212.5,358h11.2L161.9,250.7z"/>
<path class="st0" d="M360.6,266.3L319.9,358h-16.5l53.3-105.9C361,255.1,363,260.9,360.6,266.3z"/>
<path class="st1" d="M271.9,358l68.6-102.8c2.1-3.2,5.8-5.2,9.6-5.2c1.4,0,2.7,0.3,3.9,0.7L292.1,358H271.9z"/>
<path class="st2" d="M354,250.7c1,0.3,1.8,0.8,2.6,1.4L303.3,358h-11.2L354,250.7z"/>
<path class="st2" d="M378.1,358h-86.7c7,0,12.6,5.7,12.6,12.6v34.7c0,7-5.7,12.6-12.6,12.6h86.7c12.1,0,21.9-9.8,21.9-21.9v-16.2
	C400,367.8,390.2,358,378.1,358z"/>
<path class="st3" d="M208,405.4v-34.7c0-7,5.7-12.6,12.6-12.6h-86.7c-12.1,0-21.9,9.8-21.9,21.9v16.2c0,12.1,9.8,21.9,21.9,21.9
	h86.7C213.7,418,208,412.3,208,405.4L208,405.4z"/>
<path class="st2" d="M304,405.4v-34.7c0-7-5.7-12.6-12.6-12.6h-70.7c-7,0-12.6,5.7-12.6,12.6v34.7c0,7,5.7,12.6,12.6,12.6h70.7
	C298.3,418,304,412.3,304,405.4z"/>
<path class="st4" d="M378.1,424H133.9c-15.4,0-27.9-12.5-27.9-27.9v-16.2c0-15.4,12.5-27.9,27.9-27.9h244.2
	c15.4,0,27.9,12.5,27.9,27.9v16.2C406,411.5,393.5,424,378.1,424z M133.9,364c-8.8,0-15.9,7.1-15.9,15.9v16.2
	c0,8.8,7.1,15.9,15.9,15.9h244.2c8.8,0,15.9-7.1,15.9-15.9v-16.2c0-8.8-7.1-15.9-15.9-15.9H133.9z"/>
<path class="st4" d="M244,364h-48c-2.4,0-4.5-1.4-5.5-3.6l-40.8-91.7c-2.4-5.5-1.9-11.7,1.3-16.7c3.3-5,8.8-8,14.7-8
	c5.9,0,11.4,2.9,14.6,7.8L249,354.7c1.2,1.8,1.3,4.2,0.3,6.2S246.2,364,244,364z M199.9,352h32.9l-62.3-93.5c-1-1.6-2.8-2.5-4.6-2.5
	c-1.9,0-3.6,0.9-4.7,2.5c-1,1.6-1.2,3.5-0.4,5.3L199.9,352z"/>
<path class="st4" d="M320,364h-48c-2.2,0-4.2-1.2-5.3-3.2c-1-2-0.9-4.3,0.3-6.2l68.6-102.8c3.3-4.9,8.7-7.8,14.6-7.8
	c6,0,11.5,3,14.7,8s3.8,11.3,1.3,16.7l-40.8,91.7C324.5,362.6,322.4,364,320,364L320,364z M283.2,352h32.9l39.2-88.2
	c0.8-1.8,0.6-3.7-0.4-5.3c-1-1.6-2.8-2.5-4.7-2.5c-1.9,0-3.6,0.9-4.6,2.5L283.2,352z"/>
<path class="st5" d="M256,94c-46.4,0-88.4,18.8-118.8,49.2l25.5,25.5c9.9-9.9,21.3-18.1,33.8-24.5l-0.5-1
	C211.4,112.8,232.6,94,256,94z"/>
<path class="st5" d="M374.8,143.2C344.4,112.8,302.4,94,256,94c23.4,0,44.6,18.8,60,49.2l-0.5,1c12.6,6.4,24,14.6,33.8,24.5
	L374.8,143.2z"/>
<path class="st5" d="M256,94c-23.4,0-44.6,18.8-60,49.2l0.5,1c17.9-9.1,38.1-14.2,59.5-14.2s41.6,5.1,59.5,14.2l0.5-1
	C300.6,112.8,279.4,94,256,94z"/>
<path class="st5" d="M256,166c-26.5,0-50.5,10.7-67.9,28.1l25.5,25.5c6.4-6.4,14.3-11.4,23.1-14.4l-3.8-11.1
	C238.8,176.7,247,166,256,166z"/>
<path class="st5" d="M323.9,194.1C306.5,176.7,282.5,166,256,166c9,0,17.2,10.7,23.1,28.1l-3.8,11.1c8.8,3,16.7,7.9,23.1,14.4
	L323.9,194.1z"/>
<path class="st5" d="M256,166c-9,0-17.2,10.7-23.1,28.1l3.8,11.1c6.1-2.1,12.6-3.2,19.3-3.2s13.3,1.1,19.3,3.2l3.8-11.1
	C273.2,176.7,265,166,256,166L256,166z"/>
<path class="st5" d="M248.6,262c0-13.3,3.3-24,7.4-24c-13.3,0-24,10.7-24,24s10.7,24,24,24C251.9,286,248.6,275.3,248.6,262z"/>
<path class="st5" d="M256,238c4.1,0,7.4,10.7,7.4,24s-3.3,24-7.4,24c13.3,0,24-10.7,24-24S269.3,238,256,238z"/>
<ellipse class="st5" cx="256" cy="262" rx="7.4" ry="24"/>
<g>
	<path class="st4" d="M349.3,174.7c-1.5,0-3.1-0.6-4.2-1.8C321.3,149.1,289.6,136,256,136c-33.6,0-65.3,13.1-89.1,36.9
		c-2.3,2.3-6.1,2.3-8.5,0L133,147.4c-2.3-2.3-2.3-6.1,0-8.5c32.9-32.9,76.6-51,123-51c46.5,0,90.2,18.1,123,51
		c1.1,1.1,1.8,2.7,1.8,4.2c0,1.6-0.6,3.1-1.8,4.2l-25.5,25.5C352.4,174.1,350.9,174.7,349.3,174.7L349.3,174.7z M256,124
		c34.8,0,67.7,12.8,93.2,36.3l17-17c-30-28-69-43.3-110.2-43.3s-80.2,15.3-110.2,43.3l17,17C188.3,136.8,221.2,124,256,124L256,124z
		"/>
	<path class="st4" d="M213.6,225.6c-1.5,0-3.1-0.6-4.2-1.8l-25.5-25.5c-2.3-2.3-2.3-6.1,0-8.5c19.2-19.3,44.9-29.9,72.1-29.9
		s52.9,10.6,72.1,29.9c2.3,2.3,2.3,6.1,0,8.5l-25.5,25.5c-1.1,1.1-2.6,1.8-4.2,1.8s-3.1-0.6-4.2-1.8C284,213.6,270.4,208,256,208
		s-28,5.6-38.2,15.8C216.7,225,215.1,225.6,213.6,225.6L213.6,225.6z M196.7,194.3l17,17c11.8-9.9,26.6-15.3,42.2-15.3
		s30.4,5.4,42.2,15.3l17-17C298.9,179.9,278,172,256,172S213.1,179.9,196.7,194.3z"/>
	<path class="st4" d="M256,292c-16.5,0-30-13.5-30-30s13.5-30,30-30s30,13.5,30,30S272.5,292,256,292z M256,244c-9.9,0-18,8.1-18,18
		c0,9.9,8.1,18,18,18c9.9,0,18-8.1,18-18S265.9,244,256,244z"/>
	<circle class="st4" cx="144.1" cy="388" r="8.1"/>
	<circle class="st4" cx="168.1" cy="388" r="8.1"/>
	<circle class="st4" cx="192.1" cy="388" r="8.1"/>
	<path class="st4" d="M364,394h-24c-3.3,0-6-2.7-6-6s2.7-6,6-6h24c3.3,0,6,2.7,6,6S367.3,394,364,394z"/>
</g>
</svg>
